<svg id="Capa_1" enable-background="new 0 0 512.203 512.203" height="512" viewBox="0 0 512.203 512.203" width="512" xmlns="http://www.w3.org/2000/svg"><path d="m301.102 286.117c0 8.27-6.73 15-15 15s-15-6.73-15-15 6.73-15 15-15 15 6.73 15 15z"/><path d="m297.842 329.557c-3.74 1.02-7.68 1.56-11.74 1.56-24.81 0-45-20.19-45-45 0-24.8 20.18-44.99 44.98-45l.02-.07h131.44c-14.66-59.01-71.08-97.59-131.92-89.95-60.51 7.6-104.52 62.82-104.52 124.75v70.27c0 24.81-20.19 45-45 45-8.388 0-15.125 6.884-15 15.22.42 28.75 12.03 55.61 32.69 75.62 36.19 35.05 82.26 29.84 83.91 30.12 34.96-.39 63.4-29.16 63.4-64.12 0-14.8 12.04-26.84 26.84-26.84h4.67c6.97 34.19 37.27 60 73.49 60 8.28 0 15-6.72 15-15v-49.98z"/><path d="m31.102 345.117v-69.053c0-159.431 126.155-274.714 269.104-276.053 84.622-.777 140.074 39.354 144.296 41.182 7.662 4.534 9.733 14.748 4.361 21.91l-54.396 72.529c-4.544 6.059-12.892 7.781-19.464 4.011-46.053-26.417-101.237-26.147-147.619.718-47.765 27.667-76.281 78.397-76.281 135.704v39.053c0 6.457-4.132 12.188-10.257 14.23l-90 30c-9.703 3.232-19.744-3.996-19.744-14.231z"/><path d="m481.102 286.047v106.7c0 12.15-13.68 19.26-23.62 12.28-22.449-15.771-40.753-28.631-133.9-94.04 4.75-7.13 7.52-15.69 7.52-24.87 0-5.28-.92-10.36-2.6-15.07h137.6c8.28 0 15 6.72 15 15z"/></svg>